<svg width="1060" height="1122" viewBox="0 0 1060 1122" fill="none" xmlns="http://www.w3.org/2000/svg">
<path d="M0.200201 1015.78H1015.77V0.205701H0.200201V1015.78V1015.78ZM1015.97 1015.97H0V0H1015.97V1015.97Z" fill="#EEEDEC"/>
<path fill-rule="evenodd" clip-rule="evenodd" d="M1059.9 1120.59L679.931 1122L679.93 1121.77L1059.9 1120.36L1059.9 1120.59Z" fill="#A09D9C"/>
<path d="M258.778 666.662H757.12C761.501 666.662 765.05 670.211 765.05 674.593V674.752C765.05 679.133 761.501 682.682 757.12 682.682H258.778C254.398 682.682 250.848 679.133 250.848 674.752V674.593C250.848 670.211 254.398 666.662 258.778 666.662V666.662Z" fill="#717075"/>
<path d="M550.791 675.482H566.048C570.43 675.482 573.979 679.031 573.979 683.413V683.569C573.979 687.951 570.43 691.5 566.048 691.5H550.791C546.409 691.5 542.86 687.951 542.86 683.569V683.413C542.86 679.031 546.409 675.482 550.791 675.482Z" fill="#717075"/>
<path d="M585.955 675.483H601.216C605.596 675.483 609.148 679.032 609.148 683.414V683.572C609.148 687.954 605.596 691.503 601.216 691.503H585.955C581.579 691.503 578.027 687.954 578.027 683.572V683.414C578.027 679.032 581.579 675.483 585.955 675.483Z" fill="#717075"/>
<path d="M624.039 675.483H639.307C643.687 675.483 647.238 679.032 647.238 683.413V683.572C647.238 687.954 643.687 691.503 639.307 691.503H624.039C619.659 691.503 616.109 687.954 616.109 683.572V683.413C616.109 679.032 619.659 675.483 624.039 675.483Z" fill="#717075"/>
<path d="M662.13 675.483H677.386C681.766 675.483 685.316 679.032 685.316 683.414V683.572C685.316 687.954 681.766 691.502 677.386 691.502H662.13C657.746 691.502 654.195 687.954 654.195 683.572V683.414C654.195 679.032 657.746 675.483 662.13 675.483Z" fill="#717075"/>
<path d="M698.426 675.483H713.687C718.07 675.483 721.618 679.031 721.618 683.413V683.572C721.618 687.953 718.07 691.502 713.687 691.502H698.426C694.048 691.502 690.5 687.953 690.5 683.572V683.413C690.5 679.031 694.048 675.483 698.426 675.483Z" fill="#717075"/>
<path d="M733.93 675.482H749.19C753.569 675.482 757.12 679.03 757.12 683.412V683.571C757.12 687.952 753.569 691.501 749.19 691.501H733.93C729.551 691.501 726 687.952 726 683.571V683.412C726 679.03 729.551 675.482 733.93 675.482Z" fill="#717075"/>
<path d="M569.975 395.441L495.159 321.041L493.817 332.729L556.878 395.441H569.975Z" fill="#717075"/>
<path d="M419.489 395.441L482.559 332.729L481.209 321.041L406.387 395.441H419.489Z" fill="#717075"/>
<path d="M496.089 668.919H478.838V319.35C478.838 314.589 482.702 310.719 487.459 310.719C492.229 310.719 496.089 314.589 496.089 319.35V668.919Z" fill="#717075"/>
<path d="M478.929 627.133L441.129 668.62L422.657 668.581L479.01 606.341L478.929 627.133Z" fill="#717075"/>
<path d="M495.711 627.133L533.5 668.62L551.968 668.581L495.711 606.341V627.133Z" fill="#717075"/>
<path d="M483.218 328.92C483.218 331.343 485.121 333.314 487.458 333.314C489.808 333.314 491.711 331.343 491.711 328.92C491.711 326.494 489.808 324.531 487.458 324.531C485.121 324.531 483.218 326.494 483.218 328.92Z" fill="#95D4E9"/>
<path d="M327.81 578.041H648.572V561.051H327.81V578.041Z" fill="#034465"/>
<path d="M327.807 367.325H648.568V358.993H327.807V367.325Z" fill="#034465"/>
<path d="M337.277 561.052H639.099V367.314H337.277V561.052Z" fill="#F2F2F1"/>
<path d="M355.9 491.788H461.119V484.407H355.9V491.788Z" fill="#E2E7F5"/>
<path d="M355.897 505.912H461.117V498.531H355.897V505.912Z" fill="#E2E7F5"/>
<path d="M355.897 520.03H461.117V512.65H355.897V520.03Z" fill="#E2E7F5"/>
<path d="M355.897 534.151H461.117V526.771H355.897V534.151Z" fill="#E2E7F5"/>
<path d="M355.897 548.273H461.117V540.893H355.897V548.273Z" fill="#E2E7F5"/>
<path d="M487.721 548.273H623.92V443.599H487.721V548.273Z" fill="#E2E7F5"/>
<path d="M499.361 549.928H504.213V441.929H499.361V549.928Z" fill="#FEFEFE"/>
<path d="M514.86 549.928H519.712V441.929H514.86V549.928Z" fill="#FEFEFE"/>
<path d="M530.363 549.928H535.211V441.929H530.363V549.928Z" fill="#FEFEFE"/>
<path d="M545.859 549.928H550.711V441.929H545.859V549.928Z" fill="#FEFEFE"/>
<path d="M561.362 549.928H566.21V441.929H561.362V549.928Z" fill="#FEFEFE"/>
<path d="M576.861 549.928H581.709V441.929H576.861V549.928Z" fill="#FEFEFE"/>
<path d="M592.353 549.928H597.209V441.929H592.353V549.928Z" fill="#FEFEFE"/>
<path d="M607.857 549.934H612.707V441.935H607.857V549.934Z" fill="#FEFEFE"/>
<path d="M485.272 458.789H624.512V453.939H485.272V458.789Z" fill="#FEFEFE"/>
<path d="M485.272 474.448H624.512V469.598H485.272V474.448Z" fill="#FEFEFE"/>
<path d="M485.272 490.119H624.512V485.257H485.272V490.119Z" fill="#FEFEFE"/>
<path d="M485.272 505.77H624.512V500.92H485.272V505.77Z" fill="#FEFEFE"/>
<path d="M485.272 521.44H624.512V516.582H485.272V521.44Z" fill="#FEFEFE"/>
<path d="M485.272 537.099H624.512V532.241H485.272V537.099Z" fill="#FEFEFE"/>
<path d="M488.197 511.804L486.897 507.852L545.507 488.503L594.474 501.221L623.538 486.04L625.467 489.732L594.976 505.651L594.198 505.453L545.65 492.842L488.197 511.804Z" fill="#034465"/>
<path d="M600.563 502.807C600.563 506.029 597.952 508.639 594.731 508.639C591.509 508.639 588.902 506.029 588.902 502.807C588.902 499.589 591.509 496.979 594.731 496.979C597.952 496.979 600.563 499.589 600.563 502.807Z" fill="#E95723"/>
<path d="M629.441 488.097C629.441 491.318 626.832 493.93 623.611 493.93C620.39 493.93 617.781 491.318 617.781 488.097C617.781 484.88 620.39 482.271 623.611 482.271C626.832 482.271 629.441 484.88 629.441 488.097Z" fill="#E95723"/>
<path d="M551.411 490.671C551.411 493.892 548.8 496.503 545.579 496.503C542.358 496.503 539.748 493.892 539.748 490.671C539.748 487.44 542.358 484.833 545.579 484.833C548.8 484.833 551.411 487.44 551.411 490.671Z" fill="#E95723"/>
<path d="M493.94 509.552C493.94 512.773 491.329 515.38 488.108 515.38C484.88 515.38 482.27 512.773 482.27 509.552C482.27 506.331 484.88 503.721 488.108 503.721C491.329 503.721 493.94 506.331 493.94 509.552Z" fill="#E95723"/>
<path d="M505.799 430.082H514.907V415.961H505.799V430.082Z" fill="#99C2DA"/>
<path d="M524.018 430.082H533.139V400.47H524.018V430.082Z" fill="#E95723"/>
<path d="M542.252 430.08H551.369V410.567H542.252V430.08Z" fill="#99C2DA"/>
<path d="M560.481 430.081H569.603V389.699H560.481V430.081Z" fill="#E95723"/>
<path d="M578.708 430.079H587.818V383.61H578.708V430.079Z" fill="#99C2DA"/>
<path d="M596.938 430.084H606.049V372.592H596.938V430.084Z" fill="#E95723"/>
<path d="M410.487 426.536H451.347C450.028 446.553 433.411 462.401 413.047 462.401C391.816 462.401 374.608 445.204 374.608 423.972C374.608 403.603 390.458 386.982 410.487 385.663V426.536V426.536Z" fill="#034465"/>
<path d="M415.607 419.911V388.181C427.89 389.051 438.479 396.142 444.247 406.302L415.607 419.911Z" fill="#99C2DA"/>
<path d="M448.827 421.401H424.409L446.478 410.924C447.788 414.284 448.58 417.791 448.827 421.401V421.401Z" fill="#E95723"/>
<path d="M681.222 296.508L679.152 294.438L682.59 291.01C683.282 290.318 683.853 289.247 683.248 288.647L680.213 285.608L677.87 287.951C677.193 288.638 676.66 288.417 676.06 287.807L672.785 284.527C672.185 283.927 671.892 283.346 672.583 282.659L674.922 280.321L672.31 277.709C671.71 277.109 670.211 277.258 669.529 277.949L666.091 281.377L664.449 279.74C663.849 279.13 662.822 279.001 662.13 279.687L658.399 283.428C657.713 284.119 657.852 285.128 658.452 285.737L660.089 287.38L657.069 290.4C656.383 291.086 656.531 292.287 657.132 292.887L659.739 295.499L661.371 293.867C662.063 293.18 663.355 292.757 663.955 293.358L667.239 296.637C667.839 297.237 667.35 298.481 666.663 299.158L665.03 300.8L668.07 303.83C668.675 304.43 669.443 304.147 670.13 303.46L673.15 300.44L675.219 302.51C675.82 303.11 676.77 303.177 677.462 302.49L681.202 298.75C681.879 298.068 681.831 297.108 681.222 296.508V296.508Z" fill="#99C2DA"/>
<path d="M656.839 298.381L654.739 300.477L651.222 296.961C650.533 296.271 649.313 295.469 648.699 296.079L645.511 299.268L648.043 301.8C648.727 302.489 648.512 302.691 647.902 303.3L644.62 306.578C644.02 307.178 643.513 307.698 642.819 307.019L640.292 304.491L637.774 307.009C637.159 307.619 637.689 309.11 638.379 309.799L641.9 313.311L640.062 315.149C639.462 315.749 639.049 316.889 639.738 317.569L643.48 321.311C644.16 322 645.482 321.77 646.078 321.161L647.921 319.332L650.837 322.248C651.531 322.938 652.408 322.858 653.013 322.258L655.54 319.73L654.031 318.23C653.351 317.541 652.84 316.012 653.449 315.398L656.731 312.12C657.332 311.52 658.56 312.322 659.25 313.011L660.759 314.521L663.953 311.318C664.553 310.718 664.361 310.099 663.681 309.41L660.759 306.489L662.851 304.388C663.46 303.788 663.418 302.737 662.743 302.048L659.001 298.32C658.312 297.631 657.44 297.772 656.839 298.381V298.381Z" fill="#E95723"/>
<path d="M667.66 292.927L671.951 292.899C672.2 292.899 672.431 292.988 672.605 293.167C672.783 293.341 672.882 293.567 672.873 293.817L672.788 298.07L670.982 298.037L671.038 294.72L667.669 294.739L667.66 292.927V292.927Z" fill="#39519C"/>
<path d="M657.725 306.751L671.317 293.164L672.597 294.452L659.005 308.044L657.725 306.751Z" fill="#39519C"/>
<path d="M649.28 304.579V304.561L649.359 300.311L651.171 300.353L651.111 303.661L654.479 303.643L654.489 305.46L650.197 305.483C649.95 305.492 649.718 305.39 649.541 305.222C649.382 305.05 649.28 304.821 649.28 304.579V304.579Z" fill="#39519C"/>
<path d="M649.548 303.942L663.138 290.352L664.417 291.631L650.832 305.221L649.548 303.942Z" fill="#39519C"/>
<path d="M417.178 264.941C417.178 264.941 417.048 264.941 416.818 264.941C416.589 264.941 416.247 264.951 415.809 264.97C414.927 264.99 413.658 265.048 412.038 265.18C408.807 265.429 404.217 265.921 398.788 267.014C396.068 267.55 393.147 268.242 390.088 269.14C387.037 270.022 383.858 271.139 380.648 272.499C379.05 273.192 377.438 273.923 375.847 274.762C375.039 275.162 374.259 275.62 373.459 276.049C373.067 276.283 372.679 276.513 372.28 276.742L371.687 277.103L371.109 277.473C369.55 278.429 368.039 279.521 366.568 280.653C365.838 281.243 365.098 281.813 364.41 282.442C364.057 282.749 363.697 283.042 363.358 283.369L362.349 284.329C361.02 285.661 359.739 287.021 358.589 288.504C357.989 289.211 357.467 289.981 356.917 290.722C356.648 291.103 356.409 291.502 356.148 291.883C355.908 292.273 355.64 292.639 355.417 293.053C353.53 296.203 352.07 299.519 351.068 302.84C350.069 306.161 349.498 309.462 349.209 312.593C348.909 315.723 348.958 318.693 349.11 321.409C349.149 322.092 349.187 322.76 349.236 323.413C349.307 324.062 349.378 324.691 349.438 325.3C349.48 325.612 349.508 325.92 349.54 326.212C349.579 326.51 349.628 326.812 349.667 327.1C349.748 327.68 349.84 328.241 349.918 328.792C350.278 330.962 350.648 332.839 351.008 334.38C351.339 335.931 351.678 337.111 351.89 337.93C352.108 338.749 352.218 339.193 352.218 339.193C352.218 339.193 352.119 338.749 351.939 337.92C351.77 337.101 351.47 335.892 351.208 334.331C350.898 332.79 350.609 330.903 350.338 328.723C350.278 328.172 350.217 327.612 350.157 327.031C350.129 326.744 350.098 326.451 350.069 326.149C350.048 325.851 350.02 325.554 350.009 325.242C349.967 324.632 349.918 324.003 349.879 323.35C349.847 322.711 349.84 322.053 349.829 321.37C349.787 318.683 349.858 315.752 350.278 312.69C350.679 309.633 351.357 306.443 352.457 303.259C353.548 300.09 355.079 296.959 356.998 294.033C357.22 293.653 357.488 293.312 357.749 292.941C358 292.59 358.246 292.219 358.518 291.873C359.069 291.181 359.598 290.469 360.187 289.81C361.33 288.46 362.6 287.211 363.909 286.012L364.907 285.119C365.239 284.832 365.598 284.559 365.937 284.281C366.618 283.71 367.348 283.193 368.047 282.662C369.497 281.652 370.968 280.662 372.499 279.799L373.06 279.482L373.639 279.16C374.019 278.961 374.397 278.751 374.788 278.541C375.557 278.161 376.33 277.751 377.11 277.4C378.658 276.659 380.228 276.03 381.787 275.42C384.91 274.25 388 273.299 390.967 272.563C393.93 271.812 396.77 271.261 399.409 270.841C404.679 270.013 409.117 269.71 412.208 269.593C413.76 269.54 414.97 269.52 415.788 269.53C416.187 269.54 416.498 269.54 416.709 269.54C416.91 269.549 417.009 269.549 417.009 269.549L417.178 264.941V264.941Z" fill="#E95723"/>
<path d="M431.258 276.729C430.749 276.602 430.429 276.091 430.559 275.58L432.57 267.149C432.697 266.642 433.209 266.321 433.727 266.443C434.239 266.569 434.56 267.081 434.429 267.592L432.418 276.023C432.288 276.529 431.78 276.85 431.258 276.729Z" fill="#B8B5DB"/>
<path d="M436.499 278.402C433.028 279.833 428.707 282.042 424.209 281.682L423.757 283.57C428.078 285.462 434.249 288.161 436.08 288.963C438.98 290.231 440.168 289.371 440.168 289.371L450.427 284.77C450.427 284.77 440.038 276.942 436.499 278.402V278.402Z" fill="#596AAF"/>
<path d="M447.321 259.717C447.321 259.717 446.651 258.417 443.49 258.23C441.49 258.097 434.77 257.699 430.07 257.408L429.612 259.299C433.782 261.026 436.611 264.959 439.049 267.819C441.539 270.729 454.359 268.489 454.359 268.489L447.321 259.717Z" fill="#034465"/>
<path d="M487.039 284.814L487.078 284.775L487.015 284.765C486.498 283.293 484.246 278.005 480.044 273.905C471.427 265.473 434.569 265.263 434.569 265.263L433.006 271.785L431.419 278.302C431.419 278.302 464.326 294.914 475.848 291.341C481.448 289.601 485.864 285.925 487 284.853L487.059 284.873L487.039 284.814V284.814Z" fill="#99C2DA"/>
<path d="M477.129 290.869C483.253 288.762 487.081 284.788 487.081 284.788C487.081 284.788 485.471 279.498 480.957 274.85C480.61 274.488 480.239 274.131 479.863 273.779C477.722 276.89 474.698 282.941 475.59 291.351C476.116 291.202 476.632 291.038 477.129 290.869Z" fill="#034465"/>
<path d="M410.268 266.36C410.268 266.36 428.609 284.799 431.78 271.533C434.948 258.271 410.268 266.36 410.268 266.36Z" fill="#E95723"/>
<path d="M434.478 270.371C434.188 270.211 432.826 269.935 432.449 269.944C432.177 269.954 428.586 269.862 426.586 269.823L426.378 270.715C428.177 271.582 431.408 273.133 431.648 273.274C431.976 273.443 433.317 273.821 433.648 273.812C433.899 273.812 435.116 273.531 435.737 273.361L436.128 271.723C435.656 271.301 434.696 270.492 434.478 270.371V270.371Z" fill="#596AAF"/>
<path d="M444.618 275.488C445.119 273.4 447.239 272.1 449.338 272.598C450.358 272.849 451.219 273.468 451.769 274.371C452.308 275.261 452.478 276.309 452.238 277.319C451.73 279.431 449.61 280.721 447.511 280.219C446.498 279.982 445.631 279.349 445.091 278.46C444.54 277.571 444.367 276.522 444.608 275.502L444.618 275.488V275.488Z" fill="#FEFEFE"/>
<path d="M459.9 276.331C459.36 275.44 458.489 274.813 457.469 274.572C455.377 274.061 453.257 275.363 452.749 277.459C452.509 278.481 452.668 279.532 453.218 280.419C453.769 281.321 454.629 281.942 455.649 282.183C457.748 282.69 459.868 281.393 460.38 279.291C460.619 278.269 460.45 277.223 459.9 276.331Z" fill="#FEFEFE"/>
<path d="M468.506 281.253C468.747 280.234 468.588 279.181 468.04 278.291C467.487 277.402 466.626 276.772 465.607 276.532C463.51 276.022 461.388 277.32 460.887 279.421C460.637 280.441 460.809 281.494 461.36 282.393C461.907 283.283 462.77 283.903 463.789 284.153C465.89 284.653 468.001 283.35 468.506 281.253V281.253Z" fill="#FEFEFE"/>
<path d="M722.997 379.393H717.639C716.909 376.404 715.708 373.593 714.129 371.051L714.148 371.033L717.94 367.24C718.78 366.391 718.78 365.031 717.94 364.182L711.35 357.592C710.497 356.743 709.137 356.743 708.288 357.592L704.5 361.38C701.871 359.783 699.037 358.633 696.121 357.953V352.563C696.121 351.372 695.149 350.414 693.958 350.414H684.629C683.438 350.414 682.466 351.372 682.466 352.563V357.93C679.477 358.66 676.665 359.851 674.128 361.43L674.11 361.412L670.317 357.624C669.468 356.785 668.108 356.785 667.26 357.624L660.67 364.223C659.821 365.063 659.821 366.432 660.67 367.272L664.457 371.06C662.86 373.702 661.71 376.532 661.03 379.444H655.64C654.449 379.444 653.491 380.411 653.491 381.602V390.931C653.491 392.122 654.449 393.094 655.64 393.094H661.007C661.737 396.083 662.929 398.894 664.508 401.441L664.489 401.45L660.697 405.252C659.857 406.096 659.857 407.461 660.697 408.3L667.296 414.904C668.136 415.744 669.509 415.744 670.349 414.904L674.137 411.102C676.77 412.713 679.609 413.85 682.521 414.534V419.924C682.521 421.111 683.488 422.083 684.679 422.083H694.008C695.199 422.083 696.171 421.111 696.171 419.924V414.562C699.156 413.836 701.967 412.631 704.518 411.052L704.536 411.07L708.329 414.858C709.169 415.712 710.538 415.712 711.377 414.858L717.977 408.273C718.816 407.424 718.816 406.064 717.977 405.211L714.18 401.423C715.786 398.789 716.932 395.964 717.607 393.044H722.997C724.188 393.044 725.16 392.072 725.16 390.88V381.552C725.16 380.361 724.188 379.393 722.997 379.393V379.393Z" fill="#034465"/>
<path fill-rule="evenodd" clip-rule="evenodd" d="M689.316 408.184C701.439 408.184 711.256 398.363 711.256 386.244C711.256 374.125 701.439 364.304 689.316 364.304C677.206 364.304 667.376 374.125 667.376 386.244C667.376 398.363 677.206 408.184 689.316 408.184Z" fill="#99C2DA"/>
<path d="M689.33 370.831C680.822 370.831 673.933 377.728 673.933 386.241C673.933 394.75 680.822 401.651 689.33 401.651C697.839 401.651 704.741 394.75 704.741 386.241C704.741 377.728 697.839 370.831 689.33 370.831Z" fill="#034465"/>
<path d="M298.37 353.286H295.37C294.96 351.616 294.29 350.045 293.409 348.615L293.42 348.606L295.539 346.482C296.01 346.015 296.01 345.246 295.539 344.774L291.85 341.084C291.38 340.603 290.61 340.603 290.14 341.084L288.02 343.203C286.539 342.307 284.96 341.665 283.319 341.283V338.272C283.319 337.602 282.78 337.064 282.12 337.064H276.89C276.229 337.064 275.69 337.602 275.69 338.272V341.273C274.009 341.674 272.44 342.344 271.009 343.236L271 343.227L268.88 341.103C268.41 340.627 267.639 340.627 267.169 341.103L263.48 344.793C263.009 345.265 263.009 346.034 263.48 346.506L265.599 348.625C264.709 350.097 264.069 351.687 263.69 353.315H260.669C259.999 353.315 259.459 353.853 259.459 354.523V359.746C259.459 360.416 259.999 360.954 260.669 360.954H263.669C264.079 362.634 264.749 364.205 265.629 365.625L265.62 365.635L263.499 367.753C263.03 368.235 263.03 368.994 263.499 369.466L267.189 373.165C267.659 373.633 268.429 373.633 268.899 373.165L271.019 371.033C272.5 371.934 274.079 372.576 275.709 372.953V375.973C275.709 376.643 276.259 377.186 276.919 377.186H282.139C282.809 377.186 283.35 376.643 283.35 375.973V372.977C285.029 372.566 286.6 371.896 288.029 371.004L288.039 371.014L290.16 373.147C290.629 373.614 291.399 373.614 291.869 373.147L295.56 369.443C296.03 368.975 296.03 368.216 295.56 367.744L293.44 365.616C294.33 364.144 294.97 362.553 295.36 360.926H298.37C299.04 360.926 299.579 360.383 299.579 359.713V354.494C299.579 353.824 299.04 353.286 298.37 353.286V353.286Z" fill="#034465"/>
<path fill-rule="evenodd" clip-rule="evenodd" d="M279.52 369.403C286.3 369.403 291.799 363.906 291.799 357.115C291.799 350.333 286.3 344.844 279.52 344.844C272.739 344.844 267.24 350.333 267.24 357.115C267.24 363.906 272.739 369.403 279.52 369.403Z" fill="#99C2DA"/>
<path d="M279.529 348.496C274.759 348.496 270.899 352.354 270.899 357.114C270.899 361.888 274.759 365.746 279.529 365.746C284.289 365.746 288.149 361.888 288.149 357.114C288.149 352.354 284.289 348.496 279.529 348.496Z" fill="#034465"/>
<path d="M549.259 682.851H567.579V622.954H549.259V682.851Z" fill="#99C2DA"/>
<path d="M585.889 682.85H604.202V600.349H585.889V682.85Z" fill="#EB6020"/>
<path d="M622.522 682.85H640.832V615.081H622.522V682.85Z" fill="#99C2DA"/>
<path d="M659.142 682.85H677.461V584.627H659.142V682.85Z" fill="#EA6020"/>
<path d="M695.766 682.852H714.091V557.132H695.766V682.852Z" fill="#99C2DA"/>
<path d="M732.399 682.851H750.72V528.642H732.399V682.851Z" fill="#EB6020"/>
<path d="M548.131 608.231C547.152 608.231 546.191 607.741 545.631 606.852C544.756 605.473 545.171 603.641 546.55 602.772L595.58 571.77C596.391 571.26 597.411 571.173 598.29 571.551L629.546 584.552L718.407 519.002C719.719 518.032 721.581 518.309 722.542 519.63C723.521 520.942 723.239 522.79 721.918 523.76L631.709 590.304C630.876 590.918 629.778 591.05 628.822 590.654L597.438 577.603L549.711 607.773C549.219 608.083 548.668 608.231 548.131 608.231V608.231Z" fill="#034465"/>
<path d="M723.758 531.191L731.779 512.824L711.851 515.062L723.758 531.191Z" fill="#364E9A"/>
<path d="M637.807 585.892C637.807 590.234 634.299 593.751 629.957 593.751C625.615 593.751 622.099 590.234 622.099 585.892C622.099 581.563 625.615 578.042 629.957 578.042C634.299 578.042 637.807 581.563 637.807 585.892Z" fill="#EB6020"/>
<path d="M604.202 575.543C604.202 579.88 600.694 583.4 596.349 583.4C592.011 583.4 588.488 579.88 588.488 575.543C588.488 571.198 592.011 567.689 596.349 567.689C600.694 567.689 604.202 571.198 604.202 575.543Z" fill="#95D4E9"/>
<path d="M745.602 508.71C745.602 513.052 742.081 516.574 737.739 516.574C733.401 516.574 729.889 513.052 729.889 508.71C729.889 504.368 733.401 500.86 737.739 500.86C742.081 500.86 745.602 504.368 745.602 508.71Z" fill="#E95723"/>
<path d="M604.202 575.543C604.202 579.88 600.694 583.4 596.349 583.4C592.011 583.4 588.488 579.88 588.488 575.543C588.488 571.198 592.011 567.689 596.349 567.689C600.694 567.689 604.202 571.198 604.202 575.543Z" fill="#E95723"/>
<path d="M667.99 553.812C667.475 554.052 666.868 553.765 666.737 553.213L666.24 551.202C666.13 550.793 666.337 550.354 666.729 550.173C667.239 549.932 667.838 550.223 667.977 550.771L668.479 552.77C668.589 553.192 668.378 553.635 667.99 553.812V553.812Z" fill="#FEFEFE"/>
<path d="M670.615 552.58C670.108 552.821 669.511 552.542 669.367 551.991L668.867 549.981C668.757 549.562 668.969 549.13 669.358 548.94C669.87 548.711 670.48 549.003 670.607 549.541L671.119 551.551C671.216 551.97 671.009 552.402 670.615 552.58V552.58Z" fill="#FEFEFE"/>
<path d="M640.972 467.269L641.252 461.35L640.972 467.269Z" fill="#F198B5"/>
<path d="M645.439 463.842C648.008 463.731 646.356 459.473 645.378 459.522C644.388 459.58 642.867 463.964 645.439 463.842Z" fill="#FEFEFE"/>
<path d="M322.888 335.058H334.217C333.848 340.622 329.238 345.009 323.598 345.009C317.718 345.009 312.938 340.238 312.938 334.348C312.938 328.707 317.338 324.099 322.888 323.729V335.058Z" fill="#034465"/>
<path d="M741.188 449.011H752.52C752.151 454.561 747.537 458.961 741.902 458.961C736.021 458.961 731.242 454.192 731.242 448.301C731.242 442.661 735.637 438.052 741.188 437.679V449.011Z" fill="#034465"/>
<path d="M377.852 621.21L377.792 610.94L377.982 610.979C378.572 611.11 379.132 610.669 379.142 610.069C379.162 609.6 378.842 609.201 378.392 609.099L377.782 608.968L377.772 607.811L378.062 607.878C378.652 608.009 379.212 607.571 379.232 606.961C379.242 606.499 378.932 606.1 378.482 606.002L377.762 605.839L377.722 599.38C377.682 599.239 377.622 599.101 377.542 598.971C377.502 598.72 377.442 598.459 377.372 598.209C376.462 595.189 373.272 593.481 370.252 594.388C367.232 595.298 365.522 598.491 366.432 601.511L366.452 601.571L366.462 601.599L372.712 622.321C372.812 622.649 372.992 622.939 373.242 623.2C374.892 624.949 377.862 623.609 377.852 621.21V621.21Z" fill="#FEFEFE"/>
<path d="M374.112 622.36L367.862 601.641C367.202 599.45 368.442 597.14 370.632 596.48C372.822 595.82 378.462 597.231 379.122 599.419L379.252 621.242C379.262 623.651 376.282 624.992 374.632 623.238C374.392 622.981 374.212 622.692 374.112 622.36Z" fill="#F6B85E"/>
<path d="M374.952 605.359C371.932 606.28 368.742 604.559 367.832 601.539C366.922 598.53 368.632 595.341 371.652 594.43C374.672 593.52 377.852 595.231 378.762 598.251C379.682 601.271 377.962 604.449 374.952 605.359V605.359Z" fill="#F6B85E"/>
<path d="M376.542 606.471C376.562 605.871 377.122 605.43 377.712 605.561L379.872 606.03C380.322 606.129 380.642 606.541 380.632 607C380.612 607.6 380.052 608.041 379.462 607.91L377.302 607.441C376.852 607.339 376.532 606.929 376.542 606.471Z" fill="#FEFEFE"/>
<path d="M376.462 609.579C376.482 608.968 377.042 608.531 377.632 608.661L379.792 609.141C380.242 609.24 380.552 609.639 380.542 610.101C380.532 610.711 379.962 611.149 379.372 611.022L377.212 610.538C376.762 610.439 376.452 610.041 376.462 609.579V609.579Z" fill="#FEFEFE"/>
<path d="M380.262 562.829L369.042 596.328L380.032 596.861L390.292 566.19C391.212 563.449 389.732 560.479 386.992 559.558L386.892 559.53C384.152 558.609 381.182 560.091 380.262 562.829V562.829Z" fill="#2E3254"/>
<path d="M363.092 555.251C361.932 555.251 360.772 554.711 360.032 553.688L346.912 535.728C345.892 534.331 345.942 532.419 347.042 531.078L364.192 510.261C365.522 508.638 367.912 508.409 369.532 509.739C371.142 511.069 371.382 513.461 370.042 515.08L354.772 533.629L366.152 549.218C367.392 550.908 367.022 553.279 365.332 554.521C364.652 555.011 363.872 555.251 363.092 555.251V555.251Z" fill="#EB6020"/>
<path d="M388.282 555.209C387.502 555.209 386.722 554.969 386.052 554.478C384.362 553.251 383.992 550.869 385.232 549.18L396.662 533.558L381.442 515.048C380.112 513.44 380.352 511.051 381.962 509.721C383.582 508.381 385.972 508.621 387.302 510.24L404.392 531.011C405.492 532.349 405.542 534.26 404.522 535.661L391.342 553.66C390.602 554.679 389.452 555.209 388.282 555.209Z" fill="#EB6020"/>
<path d="M387.012 487.041C387.012 493.081 382.112 497.981 376.072 497.981C370.032 497.981 365.132 493.081 365.132 487.041C365.132 480.998 370.032 476.098 376.072 476.098C382.112 476.098 387.012 480.998 387.012 487.041Z" fill="#F6B85E"/>
<path d="M380.082 500.478L380.062 510.878L380.032 517.68L372.062 517.659L372.462 501.029L372.582 496.298L380.082 500.478Z" fill="#F198B5"/>
<path d="M364.222 516.78C364.242 513.531 367.052 510.388 369.952 508.878C374.302 506.62 381.012 508.19 383.152 509.46C386.792 511.63 388.952 516.029 388.702 520.548L388.952 544.809H363.192C363.192 544.809 364.162 524.16 364.222 516.78V516.78Z" fill="#EB6020"/>
<path d="M376.462 524.09C378.352 518.28 380.432 514.209 382.302 509.04C376.572 506.881 371.032 508.091 369.852 509.04C371.722 514.209 373.792 518.28 375.682 524.09C375.782 524.51 376.072 525.191 376.072 525.18L376.092 525.219C376.112 525.148 376.362 524.51 376.462 524.09V524.09Z" fill="#E2E7F5"/>
<path d="M376.762 509.45H375.392L374.102 517.32L375.012 522.111L376.072 525.18L377.142 522.111L378.052 517.32L376.762 509.45Z" fill="#39519C"/>
<path d="M378.152 480.779H374.002C370.332 480.779 366.902 483.778 367.362 487.419C367.692 490.068 367.362 492.061 367.362 495.991C367.362 499.279 371.222 505.678 374.522 505.678H377.632C380.932 505.678 384.792 499.279 384.792 495.991C384.792 492.061 384.452 490.068 384.792 487.419C385.252 483.778 381.812 480.779 378.152 480.779Z" fill="#F198B5"/>
<path d="M372.712 499.748C373.012 501.339 374.402 502.539 376.072 502.539C377.752 502.539 379.142 501.339 379.432 499.748H372.712V499.748Z" fill="#FEFEFE"/>
<path d="M380.212 568.011H371.942C365.992 568.011 361.532 562.571 362.702 556.74L363.192 544.809H388.952L389.452 556.74C390.622 562.571 386.162 568.011 380.212 568.011V568.011Z" fill="#2E3254"/>
<path d="M387.862 559.759H360.332C358.912 559.759 357.772 558.609 357.772 557.198V538.949C357.772 537.531 358.912 536.391 360.332 536.391H387.862C389.282 536.391 390.432 537.531 390.432 538.949V557.198C390.432 558.609 389.282 559.759 387.862 559.759Z" fill="#B8B7DC"/>
<path d="M387.862 560.839H360.332C358.912 560.839 357.772 559.699 357.772 558.281V540.028C357.772 538.61 358.912 537.471 360.332 537.471H387.862C389.282 537.471 390.432 538.61 390.432 540.028V558.281C390.432 559.699 389.282 560.839 387.862 560.839Z" fill="#596AAF"/>
<path d="M377.872 551.099H370.332C369.262 551.099 368.402 550.241 368.402 549.18V549.141C368.402 548.068 369.262 547.211 370.332 547.211H377.872C378.932 547.211 379.802 548.068 379.802 549.141V549.18C379.802 550.241 378.932 551.099 377.872 551.099Z" fill="#FEFEFE"/>
<path d="M375.862 476.098C368.582 476.098 362.282 483.771 362.282 483.771C371.352 489.32 377.732 485.249 379.932 483.45C380.562 482.931 381.862 481.831 381.862 480.391L375.862 476.098Z" fill="#F6B85E"/>
<path d="M377.092 509.901C376.702 510.261 375.312 510.219 374.942 509.841C374.592 509.481 374.472 507.83 374.472 507.83L377.682 507.919C377.682 507.919 377.472 509.559 377.092 509.901Z" fill="#B8B7DC"/>
<path d="M372.672 511.94L369.962 508.67L372.222 505.76L376.072 507.859L372.672 511.94Z" fill="#FEFEFE"/>
<path d="M379.472 511.94L382.192 508.67L379.922 505.76L376.072 507.859L379.472 511.94Z" fill="#FEFEFE"/>
<path d="M380.362 600.339L383.002 590.419L382.812 590.409C382.212 590.391 381.772 589.82 381.912 589.241C382.012 588.79 382.422 588.469 382.882 588.49L383.512 588.521L383.812 587.4L383.512 587.389C382.912 587.361 382.472 586.8 382.612 586.211C382.712 585.759 383.122 585.449 383.582 585.47L384.322 585.491L385.982 579.25C386.052 579.13 386.152 579.01 386.262 578.901C386.362 578.668 386.482 578.428 386.612 578.21C388.262 575.511 391.772 574.661 394.462 576.301C397.162 577.949 398.012 581.459 396.372 584.15L396.332 584.21L396.322 584.239L385.052 602.721C384.872 603.01 384.622 603.239 384.322 603.44C382.282 604.721 379.742 602.671 380.362 600.339V600.339Z" fill="#FEFEFE"/>
<path d="M387.162 585.742C389.852 587.378 393.372 586.528 395.012 583.84C396.652 581.141 395.802 577.631 393.102 575.991C390.412 574.35 386.902 575.2 385.252 577.889C383.612 580.591 384.462 584.101 387.162 585.742Z" fill="#F6B85E"/>
<path d="M383.692 602.4L394.952 583.928C396.152 581.97 395.532 579.42 393.572 578.231C391.622 577.039 385.812 576.979 384.622 578.94L379.002 600.029C378.382 602.35 380.922 604.4 382.962 603.119C383.262 602.929 383.512 602.7 383.692 602.4V602.4Z" fill="#F6B85E"/>
<path d="M385.332 586.408C385.472 585.819 385.042 585.258 384.432 585.23L382.222 585.149C381.762 585.131 381.352 585.449 381.252 585.9C381.112 586.479 381.552 587.05 382.152 587.071L384.362 587.16C384.822 587.17 385.232 586.86 385.332 586.408V586.408Z" fill="#FEFEFE"/>
<path d="M384.632 589.439C384.772 588.849 384.342 588.282 383.732 588.26L381.522 588.179C381.062 588.162 380.652 588.469 380.552 588.92C380.412 589.509 380.852 590.07 381.452 590.098L383.662 590.179C384.122 590.201 384.532 589.89 384.632 589.439V589.439Z" fill="#FEFEFE"/>
<path d="M363.292 554.461L392.012 575.049L382.982 582.789L357.132 563.061C354.782 561.368 354.242 558.101 355.922 555.748L355.992 555.66C357.672 553.311 360.942 552.771 363.292 554.461V554.461Z" fill="#2E3254"/>
<path d="M600.564 315.876C599.702 314.628 600.871 312.56 600.14 310.087C597.95 302.65 600.522 299.41 600.522 299.41C600.48 296.678 602.769 294.276 606.202 293.018C607.813 292.43 609.659 292.086 611.642 292.067C614.643 292.048 617.37 292.788 619.409 294.017C621.581 295.326 623.173 297.187 622.994 299.259C622.871 300.729 621.293 302.669 622.899 305.147C626.851 311.26 625.141 314.779 623.031 315.876C621.1 316.879 618.872 316.969 617.732 317.619C611.901 320.939 603.612 320.289 600.564 315.876V315.876Z" fill="#596AAF"/>
<path d="M582.277 343.112C580.925 342.954 579.536 342.714 578.106 342.384C577.056 342.144 576.396 341.095 576.636 340.045C576.885 338.982 577.925 338.335 578.984 338.575C585.666 340.122 591.141 339.461 595.249 336.616C601.528 332.254 602.646 324.224 602.655 324.142C602.8 323.074 603.786 322.323 604.849 322.455C605.917 322.595 606.668 323.572 606.528 324.644C606.478 325.042 605.17 334.494 597.479 339.823C593.358 342.683 588.259 343.782 582.277 343.112V343.112Z" fill="#F198B5"/>
<path d="M601.728 327.128C601.352 327.128 600.994 327.169 600.659 327.228C601.312 325.379 601.52 324.02 601.52 323.989C601.724 322.448 603.051 321.288 604.61 321.288C604.732 321.288 604.864 321.297 605 321.32C606.69 321.537 607.895 323.101 607.673 324.79C607.641 324.99 607.319 327.26 606.173 330.177C605.561 328.478 604.084 327.128 601.728 327.128V327.128Z" fill="#99C2DA"/>
<path d="M605.41 325.481C604.411 324.968 603.603 323.452 604.802 322.058C605.977 320.692 607.798 319.929 609.75 319.861L610.259 319.838C611.988 319.77 613.559 320.528 614.599 321.75C613.768 324.319 608.129 326.521 605.41 325.481V325.481Z" fill="#F198B5"/>
<path d="M608.718 315.933L608.682 318.14L608.6 322.28L611.78 322.344L611.88 317.043L611.917 314.992C610.957 315.631 609.861 315.983 608.718 315.933Z" fill="#F198B5"/>
<path d="M611.88 317.169V317.041L611.907 315.521C611.921 315.521 611.921 315.521 611.921 315.521L611.889 317.16C611.88 317.16 611.88 317.169 611.88 317.169V317.169Z" fill="#574895"/>
<path d="M608.679 318.662L608.72 316.461C608.802 316.461 608.866 316.461 608.948 316.461C609.999 316.461 611.021 316.119 611.907 315.521L611.88 317.041V317.169C611.163 318 609.798 318.502 608.679 318.662V318.662Z" fill="#EB5E83"/>
<path d="M609.513 317.6C612.533 317.567 615.192 316.09 616.861 313.839C618.01 312.278 618.68 310.346 618.662 308.259L618.619 304.63C618.591 301.99 617.461 299.617 615.67 297.957C614.005 296.396 611.754 295.458 609.288 295.486C607.661 295.495 606.142 295.936 604.819 296.687C601.992 298.3 600.111 301.338 600.144 304.817L600.182 308.447C600.215 311.79 602.025 314.697 604.693 316.296C606.099 317.136 607.75 317.609 609.513 317.6V317.6Z" fill="#F198B5"/>
<path d="M599.589 347.65C598.52 352.371 604.371 357.07 609.092 358.143C613.808 359.22 618.507 356.262 619.589 351.541C620.658 346.82 617.699 342.122 612.978 341.053C608.257 339.971 600.671 342.93 599.589 347.65Z" fill="#99C2DA"/>
<path d="M608.901 312.789C608.699 313.94 607.714 314.819 606.504 314.829C605.294 314.838 604.282 313.981 604.052 312.84L608.901 312.789Z" fill="#FEFEFE"/>
<path d="M600.212 327.617C599.615 329.269 601.271 331.287 603.023 331.477C604.77 331.667 606.901 329.391 607.091 327.639C607.281 325.888 604.67 322.059 603.692 323.521C602.751 324.91 600.719 326.209 600.212 327.617Z" fill="#99C2DA"/>
<path d="M614.601 321.749C615.348 322.628 615.842 323.76 615.892 325.01C615.892 325.01 613.051 338.768 619.063 346.047C619.063 346.047 608.222 352.547 599.511 348.158C599.511 341.929 603.321 337.622 602.719 327.52C602.592 325.409 603.43 323.461 604.802 322.061C604.879 325.269 611.488 321.409 614.601 321.749Z" fill="#99C2DA"/>
<path d="M602.729 386.934C601.184 386.744 600.177 388.032 599.975 388.424C598.876 390.514 598.707 392.892 596.618 396.414C595.189 398.813 594.115 399.164 593.046 401.134C592.138 402.827 593.686 403.714 595.437 403.363C596.118 403.235 600.33 402.893 600.978 399.693C601.445 397.356 605.235 396.583 605.367 395.745C605.446 395.233 605.086 393.586 605.297 391.534C605.545 389.023 604.128 387.115 602.729 386.934V386.934Z" fill="#364E9A"/>
<path d="M599.163 397.74C600.331 396.01 602.35 390.408 602.09 389.049C601.772 387.447 598.671 386.778 598.242 388.087C597.494 390.35 597.734 394.549 595.05 398.537C595.079 399.718 597.792 399.747 599.163 397.74V397.74Z" fill="#F198B5"/>
<path d="M554.51 365.121C555.59 364.002 555.153 362.419 554.96 362.03C553.942 359.892 552.14 358.34 550.566 354.55C549.5 351.97 549.858 350.899 548.909 348.87C548.1 347.13 546.47 347.838 545.7 349.452C545.399 350.068 543.16 353.649 545.329 356.08C546.933 357.859 545.28 361.361 545.871 361.969C546.229 362.341 547.773 363.031 549.29 364.43C551.152 366.14 553.526 366.131 554.51 365.121Z" fill="#364E9A"/>
<path d="M547.991 355.79C548.673 357.759 551.95 362.74 553.202 363.339C554.671 364.039 557.061 361.957 556.27 360.818C554.91 358.88 551.389 356.55 549.799 352.017C548.829 351.339 547.191 353.491 547.991 355.79V355.79Z" fill="#F198B5"/>
<path d="M590.48 360.289L590.632 360.22L611.33 350.711C613.299 349.81 615.62 350.668 616.522 352.628C617.419 354.588 616.561 356.909 614.601 357.82L614.558 357.829L596.739 365.769L603.041 387.412L597.627 389.198L588.602 364.85C587.932 363.06 588.772 361.078 590.48 360.289V360.289Z" fill="#E95723"/>
<path d="M609.492 348.428C608.483 348.428 607.415 348.369 606.279 348.261C605.202 348.147 604.424 347.179 604.532 346.107C604.641 345.039 605.609 344.26 606.682 344.369C610.279 344.74 614.931 344.618 616.57 341.939C619.149 337.708 614.28 328.39 612.375 325.467C611.782 324.557 612.031 323.349 612.931 322.756C613.841 322.168 615.049 322.417 615.642 323.326C616.533 324.698 624.231 336.889 619.9 343.966C618.104 346.939 614.601 348.428 609.492 348.428V348.428Z" fill="#F198B5"/>
<path d="M619.668 305.631C619.668 305.631 613.118 307.979 609.029 305.132C604.94 302.281 603.067 297.89 604.85 295.33C606.638 292.761 611.4 292.992 615.499 295.829C619.588 298.681 619.668 305.631 619.668 305.631V305.631Z" fill="#596AAF"/>
<path d="M611.52 349.792C611.52 349.792 607.887 349.884 602.455 350.11C599.737 350.241 596.579 350.394 593.178 350.555C589.789 350.751 586.169 350.973 582.55 351.182L581.199 351.26L580.859 351.282L580.768 351.291L580.398 351.321L580.228 351.352L579.557 351.443L578.216 351.652L578.141 351.661L577.806 351.722L577.767 351.731L577.606 351.774L577.279 351.853L576.626 352.014C574.896 352.441 573.185 352.863 571.538 353.273C569.9 353.682 568.297 354.061 566.786 354.462C565.279 354.863 563.859 355.233 562.535 355.581C559.908 356.261 557.726 356.892 556.197 357.315C554.668 357.75 553.797 358.003 553.797 358.003L554.886 362.912C554.886 362.912 555.788 362.764 557.356 362.511C558.915 362.241 561.158 361.884 563.837 361.374C565.166 361.13 566.616 360.865 568.149 360.582C569.687 360.312 571.299 359.963 572.967 359.641C574.631 359.301 576.347 358.961 578.098 358.613L578.756 358.482L579.087 358.421L579.257 358.391L579.296 358.382C579.366 358.365 578.769 358.473 579.03 358.421H579.048L579.139 358.413L580.476 358.251L581.147 358.173L581.317 358.151H581.339C581.408 358.142 580.799 358.203 581.069 358.173H581.108H581.199L581.535 358.151L582.889 358.103C586.518 357.964 590.137 357.824 593.526 357.694C596.928 357.511 600.095 357.354 602.808 357.223C608.24 356.914 611.859 356.644 611.859 356.644L611.52 349.792V349.792Z" fill="#E95723"/>
<path d="M610.328 352.098C610.328 351.45 609.802 350.92 609.149 350.92H566.57C565.683 350.92 564.952 351.45 564.952 352.098C564.952 352.742 565.683 353.268 566.57 353.268H609.149C609.802 353.268 610.328 352.75 610.328 352.098Z" fill="#2E3254"/>
<path d="M612.002 352.098C612.002 352.742 611.432 353.268 610.732 353.268H594.559C593.867 353.268 593.302 352.742 593.302 352.098C593.302 351.45 593.867 350.92 594.559 350.92H610.732C611.432 350.92 612.002 351.45 612.002 352.098Z" fill="#034465"/>
<path d="M565.014 328.893V350.364C565.014 351.321 565.787 352.094 566.749 352.094H595.075C596.036 352.094 596.81 351.321 596.81 350.364V328.893C596.81 327.936 596.036 327.154 595.075 327.154H566.749C565.787 327.154 565.014 327.936 565.014 328.893V328.893Z" fill="#FEFEFE"/>
<path d="M563.697 328.893V350.364C563.697 351.321 564.471 352.094 565.428 352.094H593.758C594.711 352.094 595.488 351.321 595.488 350.364V328.893C595.488 327.936 594.711 327.154 593.758 327.154H565.428C564.471 327.154 563.697 327.936 563.697 328.893V328.893Z" fill="#034465"/>
<path d="M584.265 339.624C584.265 338.614 583.45 337.803 582.436 337.803H576.749C575.734 337.803 574.919 338.614 574.919 339.624C574.919 340.633 575.734 341.453 576.749 341.453H582.436C583.45 341.453 584.265 340.633 584.265 339.624Z" fill="#FEFEFE"/>
<path d="M617.838 326.791C615.528 326.791 614.078 328.1 613.453 329.758C612.732 328.3 612.003 326.999 611.41 326.089C610.472 324.661 610.879 322.741 612.311 321.798C612.819 321.472 613.398 321.3 614.001 321.3C615.061 321.3 616.022 321.821 616.602 322.7C617.05 323.388 617.997 324.92 618.998 326.918C618.64 326.841 618.26 326.791 617.838 326.791Z" fill="#99C2DA"/>
<path d="M597.798 344.774C597.326 345.845 597.278 346.982 597.586 348.013L604.167 350.922C605.137 350.451 605.948 349.653 606.419 348.591C607.477 346.21 606.397 343.42 604.021 342.371C601.637 341.322 598.847 342.393 597.798 344.774Z" fill="#F198B5"/>
<path d="M478.068 621.63V621.503L478.1 619.983C478.11 619.972 478.11 619.972 478.11 619.972L478.079 621.612C478.079 621.623 478.068 621.623 478.068 621.63V621.63Z" fill="#323C78"/>
<path d="M385.091 312.778C385.31 313.928 386.319 314.799 387.529 314.799C388.739 314.799 389.751 313.928 389.96 312.778H385.091Z" fill="#FEFEFE"/>
<path d="M326.476 586.475V596.906C339.546 597.826 349.056 608.838 349.636 621.766C349.756 624.464 349.336 627.096 348.496 629.565L358.936 632.606C360.036 629.197 360.646 625.576 360.646 621.803C360.666 602.674 345.466 587.096 326.476 586.475V586.475Z" fill="#99C2DA"/>
<path d="M324.617 596.83V586.452C315.167 586.64 306.637 590.544 300.397 596.749L307.627 603.792C312.227 599.532 318.357 596.863 324.617 596.83V596.83Z" fill="#034465"/>
<path d="M299.788 621.763C299.498 615.429 302.108 609.55 306.298 605.088L299.098 598.079C293.448 604.341 289.998 612.63 289.988 621.731C289.968 641.021 305.408 656.701 324.618 657.082V646.68C310.688 646.632 300.388 635.23 299.788 621.763V621.763Z" fill="#99C2DA"/>
<path d="M347.836 631.316C344.206 639.688 335.616 645.887 326.476 646.603V657.087C341.046 656.607 353.386 647.313 358.326 634.362L347.836 631.316V631.316Z" fill="#034465"/>
<path d="M314.307 375.223L314.277 373.484L314.307 375.223Z" fill="#2A2A42"/>
<path d="M349.137 349.014C350.177 348.363 351.377 348.154 352.499 348.324L356.496 354.803C356.146 355.894 355.427 356.863 354.376 357.514C352.026 358.955 348.957 358.221 347.507 355.885C346.057 353.532 346.787 350.454 349.137 349.014V349.014Z" fill="#E95723"/>
</svg>
